<svg width="90" height="90" viewBox="0 0 90 90" fill="none" xmlns="http://www.w3.org/2000/svg">
<path d="M44.8573 89.8934C69.6313 89.8934 89.7147 69.8132 89.7147 45.0431C89.7147 20.2729 69.6313 0.192749 44.8573 0.192749C20.0833 0.192749 0 20.2729 0 45.0431C0 69.8132 20.0833 89.8934 44.8573 89.8934Z" fill="#FF7272"/>
<mask id="mask0_1365_5087" style="mask-type:alpha" maskUnits="userSpaceOnUse" x="1" y="10" width="89" height="81">
<path d="M89.8827 45.1498C89.8827 69.9287 69.8082 90.0001 45.0253 90.0001C24.266 90.0001 6.82384 75.9202 1.6875 56.7903L73.5534 10.5277C83.5265 18.766 89.8827 31.2196 89.8827 45.1498Z" fill="url(#paint0_linear_1365_5087)"/>
</mask>
<g mask="url(#mask0_1365_5087)">
<path d="M89.8844 45.1507C89.8844 69.9297 69.8099 90.0011 45.027 90.0011C24.2677 90.0011 6.82554 75.9211 1.68921 56.7913L73.5551 10.5287C83.5282 18.7669 89.8844 31.2206 89.8844 45.1507Z" fill="url(#paint1_linear_1365_5087)"/>
</g>
<mask id="mask1_1365_5087" style="mask-type:alpha" maskUnits="userSpaceOnUse" x="3" y="3" width="85" height="85">
<path d="M45.3506 87.3433C68.6117 87.3433 87.4686 68.4894 87.4686 45.232C87.4686 21.9745 68.6117 3.12061 45.3506 3.12061C22.0895 3.12061 3.23267 21.9745 3.23267 45.232C3.23267 68.4894 22.0895 87.3433 45.3506 87.3433Z" fill="url(#paint2_linear_1365_5087)"/>
</mask>
<g mask="url(#mask1_1365_5087)">
<path d="M45.3506 87.3461C68.6117 87.3461 87.4686 68.4922 87.4686 45.2348C87.4686 21.9773 68.6117 3.12341 45.3506 3.12341C22.0895 3.12341 3.23267 21.9773 3.23267 45.2348C3.23267 68.4922 22.0895 87.3461 45.3506 87.3461Z" fill="url(#paint3_linear_1365_5087)"/>
</g>
<path d="M45.3478 77.2466C63.03 77.2466 77.3643 62.9146 77.3643 45.2351C77.3643 27.5557 63.03 13.2236 45.3478 13.2236C27.6656 13.2236 13.3313 27.5557 13.3313 45.2351C13.3313 62.9146 27.6656 77.2466 45.3478 77.2466Z" fill="url(#paint4_radial_1365_5087)"/>
<path d="M16.1349 49.6212C16.1349 31.9464 30.4738 17.6097 48.1514 17.6097C58.5739 17.6097 67.8193 22.5954 73.6832 30.2987C68.3115 20.1347 57.6536 13.2017 45.3478 13.2017C27.6702 13.1803 13.3313 27.517 13.3313 45.1918C13.3313 52.4671 15.7497 59.1647 19.8373 64.5356C17.4832 60.0848 16.1349 55.0135 16.1349 49.6212Z" fill="#A70000"/>
<g opacity="0.74">
<g opacity="0.74">
<path opacity="0.74" d="M24.2256 17.0129C24.782 16.4779 25.3598 15.9644 25.9591 15.4936C25.7022 15.7076 25.424 15.9002 25.1458 16.1141C26.4727 15.1084 27.9066 14.2739 29.4261 13.6106C29.1051 13.739 28.784 13.8673 28.4844 14.0171C29.4689 13.6106 30.4748 13.2682 31.5234 13.0114C32.0371 12.883 32.4865 12.6477 32.8717 12.3053C33.2997 12.0271 33.6422 11.6633 33.899 11.1926C34.1986 10.7432 34.3484 10.2511 34.3698 9.71612C34.4982 9.18117 34.4554 8.66762 34.3056 8.13267C33.9846 7.16975 33.4067 6.24964 32.4865 5.75748C31.5234 5.24393 30.4962 5.09414 29.4261 5.35092C27.4144 5.84307 25.424 6.6348 23.6263 7.64051C21.8072 8.64622 20.1165 9.9301 18.6398 11.3852C17.9121 12.0913 17.4841 13.1826 17.4841 14.1883C17.4627 14.7447 17.5697 15.2368 17.8265 15.7076C17.9763 16.1997 18.2546 16.6277 18.6398 16.9915C19.3888 17.6762 20.3947 18.1898 21.4434 18.147C22.4706 18.1256 23.4551 17.7618 24.2256 17.0129Z" fill="white"/>
</g>
</g>
<g opacity="0.62">
<mask id="mask2_1365_5087" style="mask-type:alpha" maskUnits="userSpaceOnUse" x="16" y="22" width="59" height="53">
<g opacity="0.62">
<g opacity="0.62">
<path opacity="0.62" d="M74.6684 45.0654C74.6684 61.5419 61.3139 74.8943 44.8349 74.8943C31.0309 74.8943 19.4314 65.5219 16.0286 52.8115C45.3485 69.609 69.104 45.7073 63.8179 22.0625C70.4523 27.519 74.6684 35.8 74.6684 45.0654Z" fill="url(#paint5_linear_1365_5087)"/>
</g>
</g>
</mask>
<g mask="url(#mask2_1365_5087)">
<path opacity="0.62" d="M74.6675 45.0652C74.6675 61.5417 61.3131 74.894 44.834 74.894C31.0301 74.894 19.4305 65.5217 16.0277 52.8113C45.3476 69.6087 69.1032 45.7071 63.817 22.0623C70.4515 27.5188 74.6675 35.7998 74.6675 45.0652Z" fill="url(#paint6_linear_1365_5087)"/>
</g>
</g>
<mask id="mask3_1365_5087" style="mask-type:alpha" maskUnits="userSpaceOnUse" x="13" y="0" width="26" height="23">
<path d="M25.9353 22.7675C32.9444 22.7675 38.6263 17.6708 38.6263 11.3838C38.6263 5.09668 32.9444 0 25.9353 0C18.9262 0 13.2443 5.09668 13.2443 11.3838C13.2443 17.6708 18.9262 22.7675 25.9353 22.7675Z" fill="url(#paint7_radial_1365_5087)"/>
</mask>
<g mask="url(#mask3_1365_5087)">
<path d="M25.937 22.7675C32.9461 22.7675 38.628 17.6708 38.628 11.3838C38.628 5.09668 32.9461 0 25.937 0C18.9279 0 13.246 5.09668 13.246 11.3838C13.246 17.6708 18.9279 22.7675 25.937 22.7675Z" fill="url(#paint8_radial_1365_5087)" fill-opacity="0.2"/>
</g>
<mask id="mask4_1365_5087" style="mask-type:alpha" maskUnits="userSpaceOnUse" x="45" y="64" width="33" height="26">
<path d="M77.046 68.6672C79.871 73.6743 75.3553 81.5916 66.966 86.3206C58.5766 91.0709 49.4596 90.8356 46.6347 85.8284C43.8097 80.8213 48.3254 72.904 56.7147 68.175C65.1041 63.4461 74.1997 63.66 77.046 68.6672Z" fill="url(#paint9_radial_1365_5087)"/>
</mask>
<g mask="url(#mask4_1365_5087)">
<path opacity="0.25" d="M77.0452 68.6652C79.8702 73.6724 75.3545 81.5897 66.9651 86.3186C58.5758 91.069 49.4588 90.8336 46.6338 85.8265C43.8088 80.8193 48.3245 72.902 56.7139 68.1731C65.1032 63.4441 74.1988 63.6581 77.0452 68.6652Z" fill="url(#paint10_radial_1365_5087)"/>
</g>
<path d="M43.8767 62V39.5946L43 35.4986L43.8767 33H58.737C60.8119 33 62.8137 33.1911 64.7425 33.5734C66.7005 33.9284 68.4393 34.6111 69.9589 35.6215C71.5078 36.6318 72.7352 38.0791 73.6411 39.9633C74.547 41.8475 75 44.2914 75 47.2952C75 50.299 74.5324 52.7702 73.5973 54.709C72.6913 56.6205 71.4639 58.1088 69.9151 59.1737C68.3662 60.2387 66.6274 60.976 64.6986 61.3856C62.7699 61.7952 60.7826 62 58.737 62H43.8767ZM53.6082 54.2175H56.9397C58.6639 54.2175 60.1105 54.04 61.2795 53.685C62.4776 53.33 63.3836 52.661 63.9973 51.678C64.611 50.6676 64.9178 49.2067 64.9178 47.2952C64.9178 45.3564 64.5963 43.9364 63.9534 43.0353C63.3397 42.1069 62.4338 41.5061 61.2356 41.233C60.0667 40.9327 58.6347 40.7825 56.9397 40.7825H53.6082V54.2175Z" fill="#A70000"/>
<path d="M27.623 64L27.7557 61.6597C26.2508 61.4831 24.7754 61.2182 23.3295 60.8649C21.8836 60.4822 20.5852 60.0554 19.4344 59.5844C18.3131 59.084 17.5016 58.5835 17 58.0831L19.1689 51.5039C20.6148 52.2693 22.0607 52.9022 23.5066 53.4026C24.9525 53.8736 26.4869 54.2268 28.1098 54.4623L28.3754 49.6052C28.1098 49.5758 27.859 49.5316 27.623 49.4727C23.9049 48.7074 21.2049 47.6918 19.523 46.426C17.841 45.1307 17 43.2468 17 40.774C17 38.2719 17.959 36.3437 19.877 34.9896C21.7951 33.6061 24.4213 32.7818 27.7557 32.5169L27.623 30H33.3771L33.2443 32.5169C35.9295 32.6935 37.9361 33.032 39.2639 33.5325C40.6213 34.0035 41.5803 34.4009 42.141 34.7247L40.3705 41.3922C39.6918 41.1567 38.7475 40.8771 37.5377 40.5532C36.3279 40.2 34.7787 39.9203 32.8902 39.7143L32.6246 44.4831C32.8902 44.542 33.141 44.5861 33.3771 44.6156C35.4426 44.9394 37.2721 45.4251 38.8656 46.0727C40.459 46.7203 41.7131 47.6182 42.6279 48.7662C43.5426 49.9143 44 51.4156 44 53.2701C44 55.7723 43.0852 57.7299 41.2557 59.1429C39.4262 60.5558 36.7557 61.3948 33.2443 61.6597L33.3771 64H27.623ZM24.9672 41.2597C24.9672 42.0251 25.2623 42.5991 25.8525 42.9818C26.4721 43.3351 27.2984 43.6147 28.3311 43.8208L28.1098 39.4494H27.8C27.0328 39.4494 26.3689 39.6113 25.8082 39.9351C25.2475 40.2294 24.9672 40.671 24.9672 41.2597ZM35.7672 52.8727C35.7672 52.284 35.5016 51.813 34.9705 51.4597C34.4393 51.1065 33.6721 50.7974 32.6689 50.5325L32.8902 54.7714C33.7164 54.742 34.3951 54.5948 34.9262 54.3299C35.4869 54.0355 35.7672 53.5498 35.7672 52.8727Z" fill="#A70000"/>
<path fill-rule="evenodd" clip-rule="evenodd" d="M28.0326 59.7739L27.8964 62.1819H33.7987L33.6625 59.7739C37.2643 59.5014 40.0036 58.6381 41.8802 57.1843C43.7568 55.7304 44.6951 53.7162 44.6951 51.1417C44.6951 49.2335 44.2259 47.6888 43.2876 46.5076C42.3493 45.3263 41.063 44.4025 39.4285 43.7362C37.794 43.0698 35.9174 42.5701 33.7987 42.2369C33.5565 42.2066 33.2992 42.1612 33.0268 42.1006L33.2992 37.1938C35.2364 37.4059 36.8255 37.6936 38.0664 38.0571C39.3074 38.3902 40.276 38.678 40.9721 38.9203L42.7882 32.0599C42.2131 31.7267 41.2294 31.3179 39.8371 30.8332C38.475 30.3183 36.4168 29.97 33.6625 29.7883L33.7987 27.1986H27.8964L28.0326 29.7883C24.6124 30.0609 21.9185 30.909 19.9511 32.3325C17.9837 33.7258 17 35.7097 17 38.2842C17 40.8285 17.8626 42.7669 19.5879 44.0996C21.3132 45.402 24.0827 46.447 27.8964 47.2345C28.1386 47.2951 28.3959 47.3405 28.6683 47.3708L28.3959 52.3684C26.7311 52.1261 25.1572 51.7626 23.6741 51.278C22.1909 50.7631 20.7078 50.1119 19.2247 49.3244L17 56.0939C17.5146 56.6088 18.3469 57.1237 19.4971 57.6386C20.6775 58.1232 22.0093 58.5624 23.4925 58.9562C24.9756 59.3196 26.489 59.5922 28.0326 59.7739ZM26.0804 40.5559C25.475 40.1621 25.1723 39.5715 25.1723 38.784C25.1723 38.1782 25.4599 37.7239 26.035 37.421C26.61 37.0878 27.2911 36.9212 28.078 36.9212H28.3959L28.6229 41.4191C27.5635 41.2071 26.716 40.9193 26.0804 40.5559ZM35.4331 49.279C35.978 49.6424 36.2504 50.127 36.2504 50.7328C36.2504 51.4295 35.9628 51.9292 35.3877 52.2321C34.8429 52.5047 34.1467 52.6561 33.2992 52.6864L33.0722 48.3249C34.1013 48.5975 34.8883 48.9155 35.4331 49.279ZM44.7512 36.8842V59.8867H59.1939C61.1821 59.8867 63.1135 59.6764 64.9881 59.2559C66.8626 58.8354 68.5526 58.0785 70.0579 56.9851C71.5633 55.8918 72.7562 54.3639 73.6367 52.4014C74.5456 50.411 75 47.8738 75 44.79C75 41.7062 74.5598 39.1971 73.6793 37.2627C72.7988 35.3283 71.6059 33.8425 70.1006 32.8052C68.6236 31.7679 66.9337 31.067 65.0307 30.7026C63.1561 30.3101 61.2105 30.1139 59.1939 30.1139H44.7512L43.8991 32.679L44.7512 36.8842ZM57.4472 51.8968H54.2093V38.1037H57.4472C59.0945 38.1037 60.4862 38.2579 61.6224 38.5663C62.7869 38.8467 63.6673 39.4634 64.2638 40.4166C64.8887 41.3418 65.2011 42.7996 65.2011 44.79C65.2011 46.7524 64.9029 48.2523 64.3064 49.2896C63.7099 50.2988 62.8295 50.9857 61.665 51.3501C60.5289 51.7146 59.1229 51.8968 57.4472 51.8968Z" fill="#E3E3E3"/>
<mask id="mask5_1365_5087" style="mask-type:alpha" maskUnits="userSpaceOnUse" x="17" y="27" width="58" height="36">
<path fill-rule="evenodd" clip-rule="evenodd" d="M28.0326 59.7739L27.8964 62.1819H33.7987L33.6625 59.7739C37.2643 59.5014 40.0036 58.6381 41.8802 57.1843C43.7568 55.7304 44.6951 53.7162 44.6951 51.1417C44.6951 49.2335 44.2259 47.6888 43.2876 46.5076C42.3493 45.3263 41.063 44.4025 39.4285 43.7362C37.794 43.0698 35.9174 42.5701 33.7987 42.2369C33.5565 42.2066 33.2992 42.1612 33.0268 42.1006L33.2992 37.1938C35.2364 37.4059 36.8255 37.6936 38.0664 38.0571C39.3074 38.3902 40.276 38.678 40.9721 38.9203L42.7882 32.0599C42.2131 31.7267 41.2294 31.3179 39.8371 30.8332C38.475 30.3183 36.4168 29.97 33.6625 29.7883L33.7987 27.1986H27.8964L28.0326 29.7883C24.6124 30.0609 21.9185 30.909 19.9511 32.3325C17.9837 33.7258 17 35.7097 17 38.2842C17 40.8285 17.8626 42.7669 19.5879 44.0996C21.3132 45.402 24.0827 46.447 27.8964 47.2345C28.1386 47.2951 28.3959 47.3405 28.6683 47.3708L28.3959 52.3684C26.7311 52.1261 25.1572 51.7626 23.6741 51.278C22.1909 50.7631 20.7078 50.1119 19.2247 49.3244L17 56.0939C17.5146 56.6088 18.3469 57.1237 19.4971 57.6386C20.6775 58.1232 22.0093 58.5624 23.4925 58.9562C24.9756 59.3196 26.489 59.5922 28.0326 59.7739ZM26.0804 40.5559C25.475 40.1621 25.1723 39.5715 25.1723 38.784C25.1723 38.1782 25.4599 37.7239 26.035 37.421C26.61 37.0878 27.2911 36.9212 28.078 36.9212H28.3959L28.6229 41.4191C27.5635 41.2071 26.716 40.9193 26.0804 40.5559ZM35.4331 49.279C35.978 49.6424 36.2504 50.127 36.2504 50.7328C36.2504 51.4295 35.9628 51.9292 35.3877 52.2321C34.8429 52.5047 34.1467 52.6561 33.2992 52.6864L33.0722 48.3249C34.1013 48.5975 34.8883 48.9155 35.4331 49.279ZM44.7512 36.8842V59.8867H59.1939C61.1821 59.8867 63.1135 59.6764 64.9881 59.2559C66.8626 58.8354 68.5526 58.0784 70.0579 56.9851C71.5633 55.8917 72.7562 54.3638 73.6367 52.4014C74.5456 50.4109 75 47.8738 75 44.79C75 41.7062 74.5598 39.1971 73.6793 37.2627C72.7988 35.3283 71.6059 33.8424 70.1006 32.8052C68.6236 31.7679 66.9337 31.067 65.0307 30.7026C63.1561 30.3101 61.2105 30.1138 59.1939 30.1138H44.7512L43.8991 32.679L44.7512 36.8842ZM57.4472 51.8968H54.2093V38.1037H57.4472C59.0945 38.1037 60.4862 38.2579 61.6224 38.5663C62.7869 38.8466 63.6673 39.4634 64.2638 40.4166C64.8887 41.3417 65.2011 42.7995 65.2011 44.79C65.2011 46.7524 64.9029 48.2523 64.3064 49.2895C63.7099 50.2988 62.8295 50.9856 61.665 51.3501C60.5289 51.7145 59.1229 51.8968 57.4472 51.8968Z" fill="#81B3FF"/>
</mask>
<g mask="url(#mask5_1365_5087)">
<circle cx="34.5758" cy="2.35842" r="52.7276" fill="white"/>
</g>
<path d="M38.8661 44.8286C45.2842 44.8286 50.487 40.1631 50.487 34.4078C50.487 28.6525 45.2842 23.9869 38.8661 23.9869C32.448 23.9869 27.2451 28.6525 27.2451 34.4078C27.2451 40.1631 32.448 44.8286 38.8661 44.8286Z" fill="#E6E6E6" fill-opacity="0.2"/>
<defs>
<linearGradient id="paint0_linear_1365_5087" x1="67.4498" y1="83.9963" x2="37.1673" y2="31.5372" gradientUnits="userSpaceOnUse">
<stop offset="0.5842" stop-color="white"/>
<stop offset="0.6215" stop-color="#F8F8F8"/>
<stop offset="0.6743" stop-color="#E6E6E6"/>
<stop offset="0.7362" stop-color="#C7C7C7"/>
<stop offset="0.8052" stop-color="#9D9D9D"/>
<stop offset="0.8799" stop-color="#676767"/>
<stop offset="0.9583" stop-color="#262626"/>
<stop offset="1"/>
</linearGradient>
<linearGradient id="paint1_linear_1365_5087" x1="67.4515" y1="83.9973" x2="37.169" y2="31.5382" gradientUnits="userSpaceOnUse">
<stop offset="0.5842" stop-color="#FF0000"/>
<stop offset="0.6476" stop-color="#FF0707"/>
<stop offset="0.7372" stop-color="#FF1919"/>
<stop offset="0.8423" stop-color="#FF3737"/>
<stop offset="0.9584" stop-color="#FF6161"/>
<stop offset="1" stop-color="#FF7272"/>
</linearGradient>
<linearGradient id="paint2_linear_1365_5087" x1="7.08877" y1="62.8308" x2="83.6272" y2="27.6184" gradientUnits="userSpaceOnUse">
<stop/>
<stop offset="0.486" stop-color="#B3B3B3"/>
<stop offset="0.9526"/>
</linearGradient>
<linearGradient id="paint3_linear_1365_5087" x1="7.08877" y1="62.8336" x2="83.6272" y2="27.6212" gradientUnits="userSpaceOnUse">
<stop stop-color="#FF0000"/>
<stop offset="0.486" stop-color="#FFD0D0"/>
<stop offset="0.9526" stop-color="#FF0000"/>
</linearGradient>
<radialGradient id="paint4_radial_1365_5087" cx="0" cy="0" r="1" gradientUnits="userSpaceOnUse" gradientTransform="translate(45.3572 45.2323) scale(32.027 32.022)">
<stop offset="0.4263" stop-color="#DB1515"/>
<stop offset="0.7045" stop-color="#FF0000"/>
<stop offset="0.8047" stop-color="#FF1414"/>
<stop offset="0.8759" stop-color="#E41D1D"/>
<stop offset="0.9053" stop-color="#D72020"/>
</radialGradient>
<linearGradient id="paint5_linear_1365_5087" x1="59.7663" y1="70.9016" x2="39.6329" y2="36.024" gradientUnits="userSpaceOnUse">
<stop offset="0.2439" stop-color="white"/>
<stop offset="1"/>
</linearGradient>
<linearGradient id="paint6_linear_1365_5087" x1="59.7655" y1="70.9014" x2="39.632" y2="36.0237" gradientUnits="userSpaceOnUse">
<stop offset="0.2439" stop-color="#0E6FFF"/>
<stop offset="1" stop-color="#6DA9FF"/>
</linearGradient>
<radialGradient id="paint7_radial_1365_5087" cx="0" cy="0" r="1" gradientUnits="userSpaceOnUse" gradientTransform="translate(25.9409 11.3851) scale(12.6906 11.3824)">
<stop stop-color="#E6E6E6"/>
<stop offset="0.9018"/>
</radialGradient>
<radialGradient id="paint8_radial_1365_5087" cx="0" cy="0" r="1" gradientUnits="userSpaceOnUse" gradientTransform="translate(25.9426 11.3851) scale(12.6906 11.3824)">
<stop stop-color="white"/>
<stop offset="0.9018" stop-color="white"/>
</radialGradient>
<radialGradient id="paint9_radial_1365_5087" cx="0" cy="0" r="1" gradientUnits="userSpaceOnUse" gradientTransform="translate(61.8337 77.2555) rotate(-29.4478) scale(17.4619 10.4256)">
<stop stop-color="#E6E6E6"/>
<stop offset="0.9018"/>
</radialGradient>
<radialGradient id="paint10_radial_1365_5087" cx="0" cy="0" r="1" gradientUnits="userSpaceOnUse" gradientTransform="translate(61.8328 77.2536) rotate(-29.4478) scale(17.4619 10.4256)">
<stop stop-color="white"/>
<stop offset="0.9018" stop-color="white"/>
</radialGradient>
</defs>
</svg>