<svg width="235" height="58" viewBox="0 0 235 58" fill="none" xmlns="http://www.w3.org/2000/svg">
<g clip-path="url(#clip0_1399_412)">
<path d="M9.62907 13.9835C11.9036 13.9835 13.7474 12.1174 13.7474 9.81548C13.7474 7.51355 11.9036 5.64746 9.62907 5.64746C7.35458 5.64746 5.51074 7.51355 5.51074 9.81548C5.51074 12.1174 7.35458 13.9835 9.62907 13.9835Z" fill="#00FFA3"/>
<path d="M28.5495 49.5578C17.285 49.5696 8.14344 40.3413 8.13184 28.9409C8.13097 23.6579 10.1275 18.5749 13.7119 14.7344L42.5518 43.9222C38.7651 47.539 33.7562 49.5549 28.5495 49.5578Z" fill="white"/>
<path d="M14.5596 13.8774C18.4917 10.116 23.7392 8.08941 29.1477 8.24354C34.5562 8.39767 39.6827 10.7199 43.3995 14.6993C46.9809 18.5321 48.9765 23.6071 48.9765 28.8823C48.9765 34.1575 46.9809 39.2325 43.3995 43.0653L14.5596 13.8774Z" fill="white"/>
<path d="M13.7007 14.7348L0 0.857084L0.846868 0L14.5592 13.8777C14.2575 14.1478 13.9791 14.4413 13.7007 14.7348Z" fill="white"/>
<path d="M43.3879 43.0537L57.1002 56.9314L56.2533 57.7885L42.541 43.9108C42.831 43.6408 43.1211 43.3472 43.3879 43.0537Z" fill="white"/>
<path d="M89.4543 13.79C90.278 13.79 90.7768 14.4006 90.7768 14.9993C90.7768 15.5981 90.2084 16.2087 89.5355 16.1969H81.5077V42.0034C81.5077 42.6374 80.8928 43.2244 80.2316 43.2244C79.5007 43.2244 78.9439 42.6374 78.9439 42.0151V16.2087H70.8348C70.162 16.2087 69.5703 15.6216 69.5703 14.9993C69.5703 14.3771 70.1504 13.79 70.8348 13.79H89.4543Z" fill="white"/>
<path d="M123.526 14.4411C123.634 14.2518 123.79 14.0947 123.977 13.9855C124.165 13.8762 124.377 13.8188 124.593 13.8188C124.659 13.8169 124.725 13.8208 124.791 13.8306C125.568 13.901 125.951 14.4881 125.951 15.0516C125.954 15.2576 125.902 15.4607 125.8 15.6387L117.47 29.8099V41.9735C117.47 42.6779 116.925 43.218 116.171 43.218C115.417 43.218 114.872 42.6779 114.872 41.9735V29.8099L106.461 15.7326C106.338 15.5275 106.274 15.2917 106.275 15.0516C106.275 14.4763 106.658 13.9128 107.436 13.8423C107.516 13.8287 107.597 13.8208 107.679 13.8188C107.886 13.821 108.088 13.8786 108.265 13.9859C108.443 14.0932 108.589 14.2462 108.688 14.4294L116.183 26.8865L123.526 14.4411Z" fill="white"/>
<path d="M161.323 13.79C162.147 13.79 162.646 14.4006 162.646 14.9993C162.646 15.5981 162.078 16.2087 161.405 16.1969H153.377V42.0034C153.377 42.6374 152.762 43.2244 152.101 43.2244C151.37 43.2244 150.813 42.6374 150.813 42.0151V16.2087H142.704C142.031 16.2087 141.439 15.6216 141.439 14.9993C141.439 14.3771 142.02 13.79 142.704 13.79H161.323Z" fill="white"/>
<path d="M181.88 16.2962C182.321 14.8168 183.701 13.7836 185.337 13.7836C186.099 13.7715 186.845 14.0099 187.462 14.4629C188.079 14.9159 188.534 15.5592 188.759 16.2962L196.346 41.7622C196.374 41.8577 196.389 41.9563 196.393 42.0557C196.393 42.6075 195.952 43.1593 195.186 43.2063C194.898 43.226 194.611 43.1477 194.372 42.984C194.132 42.8203 193.953 42.5804 193.864 42.3023L191.451 34.5181H179.212L176.833 42.267C176.746 42.5548 176.566 42.8047 176.322 42.977C176.079 43.1494 175.785 43.2342 175.488 43.2181C174.734 43.1828 174.281 42.6662 174.281 42.0205C174.283 41.8893 174.303 41.759 174.339 41.633L181.88 16.2962ZM186.23 16.9537C186.079 16.4606 185.801 16.214 185.36 16.214C184.919 16.214 184.629 16.4488 184.478 16.9537L179.919 32.0759H190.731L186.23 16.9537Z" fill="white"/>
<path d="M232.413 15.0287C232.413 14.336 232.935 13.7725 233.712 13.7725C234.489 13.7725 235 14.3243 235 15.0287V39.9781C235 41.7862 233.607 43.2069 231.751 43.2069C231.13 43.2096 230.521 43.0333 229.995 42.6985C229.469 42.3638 229.048 41.8845 228.781 41.3166L217.772 16.8721C217.563 16.4142 217.308 16.1676 216.937 16.2146C216.589 16.2498 216.403 16.5198 216.403 17.0951V41.9682C216.403 42.6727 215.858 43.2128 215.104 43.2128C214.35 43.2128 213.805 42.6727 213.805 41.9682V17.0306C213.805 15.2225 215.208 13.7901 217.076 13.7901C217.695 13.7899 218.302 13.9674 218.826 14.3019C219.349 14.6365 219.768 15.1145 220.034 15.6804L231.067 40.1132C231.276 40.5711 231.531 40.8294 231.891 40.7706C232.227 40.7237 232.413 40.4654 232.413 39.8901V15.0287Z" fill="white"/>
<path d="M9.66314 14.0304C11.944 14.0304 13.7931 12.1591 13.7931 9.85066C13.7931 7.54224 11.944 5.6709 9.66314 5.6709C7.38224 5.6709 5.5332 7.54224 5.5332 9.85066C5.5332 12.1591 7.38224 14.0304 9.66314 14.0304Z" fill="#00FFA3"/>
<path d="M28.6541 49.7466C25.9656 49.7501 23.3027 49.2177 20.8175 48.1796C18.3323 47.1416 16.0734 45.6183 14.1699 43.6968C12.2664 41.7752 10.7555 39.493 9.72351 36.9804C8.69152 34.4679 8.15864 31.7742 8.15529 29.0533C8.14953 23.751 10.1553 18.6488 13.7585 14.7998L42.7029 44.0933C38.908 47.729 33.8796 49.7525 28.6541 49.7466Z" fill="white"/>
<path d="M14.6055 13.9242C22.8189 6.05785 35.7772 6.43356 43.5498 14.7461C47.1426 18.5941 49.1443 23.6877 49.1443 28.9819C49.1443 34.2762 47.1426 39.3697 43.5498 43.2178L14.6055 13.9242Z" fill="white"/>
<path d="M13.7587 14.7818L0 0.857084L0.846868 0L14.6056 13.9247C14.3155 14.2065 14.0371 14.4941 13.7587 14.7818Z" fill="white"/>
<path d="M43.5616 43.2178L57.3203 57.1425L56.4734 57.9996L42.7031 44.0866C42.9931 43.8048 43.2832 43.5113 43.5616 43.2178Z" fill="white"/>
</g>
<defs>
<clipPath id="clip0_1399_412">
<rect width="235" height="58" fill="white"/>
</clipPath>
</defs>
</svg>
